<svg width="234" height="61"  preserveAspectRatio='none' viewBox="0 0 234 61" fill="none" xmlns="http://www.w3.org/2000/svg">
<path d="M2.1162 33.6372C2.1162 23.8599 4.13491 14.3149 4.52232 4.57927C4.52232 1.43778 5.98246 2.16057 8.8667 2.16057H17.6223H37.2723C50.3998 2.16057 63.5913 1.72176 76.7059 2.29495C85.5565 2.68176 94.3903 3.52747 103.24 3.84022C141.107 5.17843 179.163 3.97459 217.063 3.97459C220.822 3.97459 228.001 2.5441 231.633 4.10897C232.167 4.33898 231.901 6.0604 231.901 6.52766C231.901 13.3357 232.164 20.1887 231.834 26.9858C231.468 34.5205 229.82 41.9048 228.626 49.3251C228.11 52.5325 229.111 56.3774 225.451 56.6148C215.131 57.2841 204.885 58.9999 194.539 58.9999H96.1888C71.1638 58.9999 45.7869 59.0406 20.8305 57.4546C15.6368 57.1246 10.4678 56.5301 5.32436 55.7414C5.01061 55.6933 2.86713 55.6302 2.45038 55.2711C1.69724 54.6222 2.1162 52.0849 2.1162 51.1727V33.6372Z" fill="white" stroke="#121212" stroke-width="3" vector-effect="non-scaling-stroke" stroke-linecap="round"/>
</svg>
