<svg width="78" height="90" viewBox="0 0 78 90" fill="none" xmlns="http://www.w3.org/2000/svg">
<path d="M10.1387 12.6923C3.46538 20.6654 0.605641 33.0506 2.64878 43.572C4.16049 51.3568 3.85833 66.2431 43.5 66.5C48.2641 74.5773 40.3762 86.7802 39.6028 87.7661C39.4444 87.9681 39.3771 88.0587 39.6467 87.9597C40.1818 87.763 40.716 87.5742 41.2485 87.3669C42.3817 86.926 53.015 82.0035 55 75C55.794 72.8114 56.7287 65.657 56.6731 64C80 52.5 80.2391 36.7228 68.5 17.5C65.681 12.8839 61.0212 9.36511 56.6731 6.31867C50.5085 1.99958 43.1253 1.99979 36.0231 2L35.875 2.00001C23.8106 2.00001 18.845 2.29045 10.1387 12.6923Z" vector-effect="non-scaling-stroke" stroke="#121212" fill="white" stroke-width="3" stroke-linecap="round"/>
</svg>
