<svg width="20" height="20" preserveAspectRatio='none' viewBox="0 0 20 20" fill="none" xmlns="http://www.w3.org/2000/svg">
<path d="M2.02441 11.5422V2.83076C2.26459 2.35041 2.59615 2.39111 3.08689 2.39111C5.37303 2.39111 7.64637 2.53766 9.93392 2.53766C12.5037 2.53766 15.0791 2.48358 17.648 2.53766C18.0368 2.54585 17.9959 2.63698 17.9981 2.99359C18.0023 3.67742 17.9981 4.36141 17.9981 5.04526L17.9981 5.18718C17.9982 8.21701 17.9983 11.2698 17.5992 14.2778C17.4694 15.2562 17.3223 16.2586 17.0781 17.2169C17.0254 17.4237 16.9876 17.5502 16.7688 17.5588C13.8474 17.6734 10.8985 17.5588 7.97588 17.5588C6.5674 17.5588 5.15891 17.5607 3.75042 17.5588C3.23748 17.5581 2.721 17.6033 2.21167 17.5425C1.99487 17.5166 2.04593 16.948 2.0407 16.8342C1.95986 15.0759 2.02441 13.3015 2.02441 11.5422Z" stroke="#121212" stroke-width="3" stroke-linecap="round" stroke-linejoin="round"/>
</svg>
